<svg id="svgSurface" xmlns="http://www.w3.org/2000/svg" version="1.1"  style="width: 1920px; height: 1200px;"><rect x="0" y="0" width="1920" height="1200" fill="white"/><path d="M1471.91 45.57C1479.31 87.6 1479.31 87.6 1613.51 67.51C1747.71 47.42 1747.71 47.42 1749.97 25.48C1752.22 3.55 1752.22 3.55 1608.37 3.55C1464.51 3.55 1464.51 3.55 1471.91 45.57" fill="#efefef" stroke="3f3f3f" stroke-width="1"/><path d="M318.49 62.41C318.6 115.9 318.6 115.9 360.41 129.78C402.22 143.66 402.22 143.66 513.56 156.04C624.91 168.41 624.91 168.41 639.1 88.66C653.29 8.91 653.29 8.91 485.84 8.91C318.38 8.91 318.38 8.91 318.49 62.41" fill="#efefef" stroke="3f3f3f" stroke-width="1"/><path d="M43.39 152.61C70.67 158.47 70.67 158.47 179.31 137.55C287.95 116.62 287.95 116.62 288.05 62.95C288.15 9.28 288.15 9.28 152.13 9.28C16.11 9.28 16.11 9.28 16.11 78.02C16.11 146.76 16.11 146.76 43.39 152.61" fill="#efefef" stroke="3f3f3f" stroke-width="1"/><path d="M1779.55 68.7C1788.39 86.48 1788.39 86.48 1837.82 111.2C1887.25 135.92 1887.25 135.92 1899.67 135.51C1912.09 135.1 1912.09 135.1 1912.09 71.07C1912.09 7.04 1912.09 7.04 1843.66 7.04C1775.22 7.04 1775.22 7.04 1772.97 28.97C1770.71 50.91 1770.71 50.91 1779.55 68.7" fill="#efefef" stroke="3f3f3f" stroke-width="1"/><path d="M1206.05 29.09C1225.13 56.18 1225.13 56.18 1250.39 29.09C1275.66 2 1275.66 2 1231.31 2C1186.97 2 1186.97 2 1206.05 29.09" fill="#efefef" stroke="3f3f3f" stroke-width="1"/><path d="M1033.28 65.01C1037.78 122.61 1037.78 122.61 1091.84 147.07C1145.91 171.54 1145.91 171.54 1180.08 116.56C1214.26 61.58 1214.26 61.58 1195.18 34.5C1176.1 7.41 1176.1 7.41 1102.44 7.41C1028.78 7.41 1028.78 7.41 1033.28 65.01" fill="#efefef" stroke="3f3f3f" stroke-width="1"/><path d="M693.79 225.34C725.94 275.37 725.94 275.37 779.87 266.83C833.79 258.3 833.79 258.3 864.58 246.81C895.36 235.33 895.36 235.33 952.08 183.17C1008.8 131.01 1008.8 131.01 1004.3 73.41C999.8 15.81 999.8 15.81 844.91 15.81C690.02 15.81 690.02 15.81 675.83 95.56C661.64 175.31 661.64 175.31 693.79 225.34" fill="#efefef" stroke="3f3f3f" stroke-width="1"/><path d="M1226 218.88C1283.88 261.19 1283.88 261.19 1359.08 224.92C1434.28 188.65 1434.28 188.65 1437.85 184.57C1441.42 180.48 1441.42 180.48 1446.95 138.48C1452.48 96.48 1452.48 96.48 1445.08 54.46C1437.69 12.43 1437.69 12.43 1362.34 12.43C1287 12.43 1287 12.43 1261.74 39.52C1236.47 66.61 1236.47 66.61 1202.29 121.59C1168.12 176.56 1168.12 176.56 1226 218.88" fill="#efefef" stroke="3f3f3f" stroke-width="1"/><path d="M1551.88 209.87C1633.49 236.87 1633.49 236.87 1659.01 227.4C1684.53 217.93 1684.53 217.93 1725.97 156.1C1767.4 94.27 1767.4 94.27 1758.57 76.48C1749.73 58.69 1749.73 58.69 1615.53 78.78C1481.33 98.87 1481.33 98.87 1475.8 140.87C1470.26 182.87 1470.26 182.87 1551.88 209.87" fill="#efefef" stroke="3f3f3f" stroke-width="1"/><path d="M1740.1 240.18C1779.67 257.3 1779.67 257.3 1794.77 263.09C1809.87 268.87 1809.87 268.87 1846.07 208.85C1882.27 148.83 1882.27 148.83 1832.84 124.11C1783.41 99.39 1783.41 99.39 1741.97 161.22C1700.53 223.05 1700.53 223.05 1740.1 240.18" fill="#efefef" stroke="3f3f3f" stroke-width="1"/><path d="M1868.27 411.75C1916.54 540.8 1916.54 540.8 1916.9 351.32C1917.25 161.84 1917.25 161.84 1904.83 162.24C1892.41 162.65 1892.41 162.65 1856.21 222.68C1820.01 282.7 1820.01 282.7 1868.27 411.75" fill="#efefef" stroke="3f3f3f" stroke-width="1"/><path d="M100.68 267.53C127.37 358.52 127.37 358.52 170.67 362.15C213.97 365.78 213.97 365.78 239.68 349.03C265.39 332.28 265.39 332.28 278.12 233.67C290.85 135.06 290.85 135.06 182.42 155.8C73.99 176.55 73.99 176.55 100.68 267.53" fill="#efefef" stroke="3f3f3f" stroke-width="1"/><path d="M1664.73 317.39C1689.31 384.44 1689.31 384.44 1729.82 325.04C1770.33 265.65 1770.33 265.65 1730.76 248.52C1691.19 231.4 1691.19 231.4 1665.67 240.87C1640.15 250.34 1640.15 250.34 1664.73 317.39" fill="#efefef" stroke="3f3f3f" stroke-width="1"/><path d="M433.83 309.39C456.06 451.81 456.06 451.81 463.21 456.03C470.36 460.25 470.36 460.25 571.69 415.23C673.01 370.22 673.01 370.22 685.8 330.99C698.6 291.77 698.6 291.77 666.45 241.74C634.29 191.71 634.29 191.71 522.95 179.33C411.6 166.96 411.6 166.96 433.83 309.39" fill="#efefef" stroke="3f3f3f" stroke-width="1"/><path d="M1714.91 446.44C1731.83 496.61 1731.83 496.61 1818.44 521.67C1905.04 546.73 1905.04 546.73 1857.13 417.89C1809.21 289.04 1809.21 289.04 1794.11 283.26C1779.01 277.48 1779.01 277.48 1738.5 336.87C1697.99 396.26 1697.99 396.26 1714.91 446.44" fill="#efefef" stroke="3f3f3f" stroke-width="1"/><path d="M999.54 321.93C1075.29 398.17 1075.29 398.17 1161.37 359.37C1247.46 320.56 1247.46 320.56 1254.29 297.75C1261.11 274.94 1261.11 274.94 1203.23 232.63C1145.35 190.31 1145.35 190.31 1091.29 165.85C1037.22 141.38 1037.22 141.38 980.5 193.54C923.79 245.7 923.79 245.7 999.54 321.93" fill="#efefef" stroke="3f3f3f" stroke-width="1"/><path d="M336.33 383.06C391.48 433.8 391.48 433.8 413.52 440.41C435.56 447.02 435.56 447.02 413.33 304.59C391.1 162.16 391.1 162.16 349.08 148.46C307.06 134.75 307.06 134.75 294.12 233.54C281.18 332.33 281.18 332.33 336.33 383.06" fill="#efefef" stroke="3f3f3f" stroke-width="1"/><path d="M58.48 415.83C112.45 360.59 112.45 360.59 85.76 269.6C59.07 178.61 59.07 178.61 31.79 172.76C4.51 166.9 4.51 166.9 4.51 318.99C4.51 471.07 4.51 471.07 58.48 415.83" fill="#efefef" stroke="3f3f3f" stroke-width="1"/><path d="M1507.47 362.45C1556.62 514.26 1556.62 514.26 1634.15 502.58C1711.68 490.91 1711.68 490.91 1694.76 440.73C1677.84 390.56 1677.84 390.56 1653.27 323.51C1628.69 256.47 1628.69 256.47 1547.07 229.47C1465.46 202.47 1465.46 202.47 1461.89 206.55C1458.33 210.64 1458.33 210.64 1507.47 362.45" fill="#efefef" stroke="3f3f3f" stroke-width="1"/><path d="M902.41 368.21C957.89 456.34 957.89 456.34 997.7 466.69C1037.5 477.05 1037.5 477.05 1048.75 443.32C1060 409.59 1060 409.59 984.25 333.35C908.5 257.12 908.5 257.12 877.72 268.6C846.93 280.09 846.93 280.09 902.41 368.21" fill="#efefef" stroke="3f3f3f" stroke-width="1"/><path d="M1288.85 405.19C1302.23 476.65 1302.23 476.65 1414.57 502.5C1526.9 528.35 1526.9 528.35 1532.36 523.78C1537.82 519.2 1537.82 519.2 1488.68 367.39C1439.54 215.58 1439.54 215.58 1364.33 251.85C1289.13 288.12 1289.13 288.12 1282.3 310.93C1275.47 333.74 1275.47 333.74 1288.85 405.19" fill="#efefef" stroke="3f3f3f" stroke-width="1"/><path d="M104.12 513.61C197.38 533.85 197.38 533.85 201.39 458.88C205.4 383.92 205.4 383.92 162.1 380.29C118.81 376.66 118.81 376.66 64.83 431.9C10.86 487.14 10.86 487.14 10.86 490.25C10.86 493.36 10.86 493.36 104.12 513.61" fill="#efefef" stroke="3f3f3f" stroke-width="1"/><path d="M297.63 492.64C382.27 451.44 382.27 451.44 327.12 400.7C271.97 349.96 271.97 349.96 246.26 366.72C220.55 383.47 220.55 383.47 216.77 458.65C212.98 533.83 212.98 533.83 297.63 492.64" fill="#efefef" stroke="3f3f3f" stroke-width="1"/><path d="M708.04 405.25C718.85 433.34 718.85 433.34 802.26 466.97C885.66 500.6 885.66 500.6 913.64 479.25C941.62 457.89 941.62 457.89 886.14 369.76C830.66 281.64 830.66 281.64 776.74 290.18C722.81 298.71 722.81 298.71 710.02 337.94C697.22 377.16 697.22 377.16 708.04 405.25" fill="#efefef" stroke="3f3f3f" stroke-width="1"/><path d="M1070.13 549.15C1082.62 607.35 1082.62 607.35 1127.94 628.95C1173.25 650.55 1173.25 650.55 1196.74 624.37C1220.23 598.19 1220.23 598.19 1249.65 543.49C1279.07 488.79 1279.07 488.79 1265.69 417.34C1252.31 345.88 1252.31 345.88 1166.23 384.68C1080.15 423.49 1080.15 423.49 1068.9 457.22C1057.65 490.95 1057.65 490.95 1070.13 549.15" fill="#efefef" stroke="3f3f3f" stroke-width="1"/><path d="M934.7 574.94C964.99 633.88 964.99 633.88 1014.97 622.14C1064.95 610.4 1064.95 610.4 1052.46 552.2C1039.98 494 1039.98 494 1000.17 483.64C960.37 473.29 960.37 473.29 932.39 494.64C904.4 516 904.4 516 934.7 574.94" fill="#efefef" stroke="3f3f3f" stroke-width="1"/><path d="M241.94 606.24C259.95 668.12 259.95 668.12 342.73 672.85C425.52 677.58 425.52 677.58 438.33 580.39C451.13 483.2 451.13 483.2 443.98 478.98C436.83 474.76 436.83 474.76 414.8 468.16C392.76 461.55 392.76 461.55 308.34 502.96C223.93 544.37 223.93 544.37 241.94 606.24" fill="#efefef" stroke="3f3f3f" stroke-width="1"/><path d="M733.76 565.37C744.34 675.46 744.34 675.46 782.68 695.58C821.02 715.7 821.02 715.7 873.99 686.13C926.96 656.56 926.96 656.56 938.76 648.5C950.56 640.43 950.56 640.43 920.27 581.49C889.98 522.55 889.98 522.55 806.58 488.92C723.17 455.29 723.17 455.29 733.76 565.37" fill="#efefef" stroke="3f3f3f" stroke-width="1"/><path d="M467.58 707.06C488.44 731.95 488.44 731.95 515.32 743.56C542.2 755.16 542.2 755.16 629.99 714.64C717.78 674.11 717.78 674.11 707.19 564.03C696.61 453.94 696.61 453.94 685.79 425.85C674.98 397.76 674.98 397.76 573.66 442.78C472.33 487.79 472.33 487.79 459.52 584.98C446.72 682.17 446.72 682.17 467.58 707.06" fill="#efefef" stroke="3f3f3f" stroke-width="1"/><path d="M1352.53 626.77C1460.35 648.46 1460.35 648.46 1482.68 635.78C1505.02 623.1 1505.02 623.1 1516.62 585.24C1528.22 547.39 1528.22 547.39 1415.88 521.53C1303.55 495.68 1303.55 495.68 1274.13 550.38C1244.71 605.08 1244.71 605.08 1352.53 626.77" fill="#efefef" stroke="3f3f3f" stroke-width="1"/><path d="M96.17 667.91C178.23 725.16 178.23 725.16 207.89 699.18C237.55 673.21 237.55 673.21 219.31 611.12C201.07 549.04 201.07 549.04 107.58 528.58C14.1 508.12 14.1 508.12 14.1 559.39C14.1 610.67 14.1 610.67 96.17 667.91" fill="#efefef" stroke="3f3f3f" stroke-width="1"/><path d="M1191.24 690.79C1197.03 713.82 1197.03 713.82 1199.66 715.7C1202.29 717.58 1202.29 717.58 1261.66 725.83C1321.04 734.07 1321.04 734.07 1367.06 718.23C1413.08 702.39 1413.08 702.39 1430.58 680.59C1448.07 658.78 1448.07 658.78 1340.25 637.09C1232.43 615.4 1232.43 615.4 1208.94 641.58C1185.46 667.75 1185.46 667.75 1191.24 690.79" fill="#efefef" stroke="3f3f3f" stroke-width="1"/><path d="M1557.73 677.41C1579.27 726.56 1579.27 726.56 1695.23 774.73C1811.19 822.89 1811.19 822.89 1855.59 803.48C1900 784.07 1900 784.07 1899.64 677.32C1899.29 570.57 1899.29 570.57 1812.33 545.3C1725.37 520.03 1725.37 520.03 1647.84 531.7C1570.31 543.38 1570.31 543.38 1564.85 547.96C1559.39 552.53 1559.39 552.53 1547.79 590.39C1536.19 628.25 1536.19 628.25 1557.73 677.41" fill="#efefef" stroke="3f3f3f" stroke-width="1"/><path d="M58.37 819.62C107.42 817.04 107.42 817.04 136.99 788.42C166.57 759.8 166.57 759.8 170.01 750C173.45 740.2 173.45 740.2 91.39 682.96C9.32 625.72 9.32 625.72 9.32 723.96C9.32 822.2 9.32 822.2 58.37 819.62" fill="#efefef" stroke="3f3f3f" stroke-width="1"/><path d="M1438.65 749.81C1444.46 793.1 1444.46 793.1 1465.3 814C1486.15 834.89 1486.15 834.89 1520.87 785.38C1555.59 735.87 1555.59 735.87 1534.05 686.71C1512.51 637.55 1512.51 637.55 1490.17 650.24C1467.83 662.92 1467.83 662.92 1450.34 684.72C1432.84 706.53 1432.84 706.53 1438.65 749.81" fill="#efefef" stroke="3f3f3f" stroke-width="1"/><path d="M989.15 736.05C1028.79 806.09 1028.79 806.09 1070.96 805.41C1113.12 804.73 1113.12 804.73 1144.2 760.2C1175.28 715.66 1175.28 715.66 1169.49 692.63C1163.7 669.59 1163.7 669.59 1118.38 647.99C1073.06 626.39 1073.06 626.39 1023.08 638.14C973.1 649.88 973.1 649.88 961.3 657.94C949.5 666.01 949.5 666.01 989.15 736.05" fill="#efefef" stroke="3f3f3f" stroke-width="1"/><path d="M1356.77 766.96C1381.75 792.55 1381.75 792.55 1408.6 794.4C1435.46 796.25 1435.46 796.25 1429.65 752.96C1423.84 709.68 1423.84 709.68 1377.82 725.52C1331.8 741.36 1331.8 741.36 1356.77 766.96" fill="#efefef" stroke="3f3f3f" stroke-width="1"/><path d="M831.67 744.4C835.96 758.13 835.96 758.13 879.22 794.92C922.48 831.7 922.48 831.7 967.55 821.66C1012.62 811.62 1012.62 811.62 972.97 741.58C933.33 671.54 933.33 671.54 880.36 701.11C827.39 730.68 827.39 730.68 831.67 744.4" fill="#efefef" stroke="3f3f3f" stroke-width="1"/><path d="M1266.19 830.2C1327.94 931.46 1327.94 931.46 1350.54 864.04C1373.15 796.62 1373.15 796.62 1348.17 771.02C1323.19 745.42 1323.19 745.42 1263.82 737.18C1204.45 728.93 1204.45 728.93 1266.19 830.2" fill="#efefef" stroke="3f3f3f" stroke-width="1"/><path d="M229.22 812.17C270.79 862.83 270.79 862.83 305.96 874.03C341.14 885.23 341.14 885.23 401.14 817.21C461.15 749.2 461.15 749.2 440.29 724.31C419.42 699.42 419.42 699.42 336.64 694.69C253.86 689.96 253.86 689.96 224.2 715.93C194.54 741.9 194.54 741.9 191.1 751.7C187.66 761.5 187.66 761.5 229.22 812.17" fill="#efefef" stroke="3f3f3f" stroke-width="1"/><path d="M1345.87 961.36C1353.36 981.14 1353.36 981.14 1415.7 999.85C1478.04 1018.55 1478.04 1018.55 1478.51 935.39C1478.99 852.22 1478.99 852.22 1458.14 831.33C1437.3 810.43 1437.3 810.43 1410.44 808.58C1383.59 806.73 1383.59 806.73 1360.98 874.16C1338.38 941.58 1338.38 941.58 1345.87 961.36" fill="#efefef" stroke="3f3f3f" stroke-width="1"/><path d="M1508.36 1030.19C1520.43 1040.76 1520.43 1040.76 1602.86 998.85C1685.29 956.95 1685.29 956.95 1741.94 903.78C1798.59 850.61 1798.59 850.61 1682.63 802.44C1566.67 754.28 1566.67 754.28 1531.95 803.79C1497.23 853.3 1497.23 853.3 1496.76 936.47C1496.28 1019.63 1496.28 1019.63 1508.36 1030.19" fill="#efefef" stroke="3f3f3f" stroke-width="1"/><path d="M574.26 858.77C594.15 940.27 594.15 940.27 600.3 944.06C606.45 947.85 606.45 947.85 695.11 907.76C783.77 867.68 783.77 867.68 799.48 815.79C815.19 763.91 815.19 763.91 810.9 750.18C806.62 736.45 806.62 736.45 768.28 716.33C729.94 696.21 729.94 696.21 642.15 736.73C554.37 777.26 554.37 777.26 574.26 858.77" fill="#efefef" stroke="3f3f3f" stroke-width="1"/><path d="M956.18 917.68C977.96 990.18 977.96 990.18 1029.95 992.1C1081.94 994.02 1081.94 994.02 1095.41 908.88C1108.87 823.75 1108.87 823.75 1066.7 824.43C1024.54 825.11 1024.54 825.11 979.47 835.15C934.39 845.19 934.39 845.19 956.18 917.68" fill="#efefef" stroke="3f3f3f" stroke-width="1"/><path d="M126.34 876.72C136.54 925.13 136.54 925.13 176.04 928.65C215.54 932.18 215.54 932.18 236.98 902.29C258.42 872.41 258.42 872.41 216.86 821.75C175.29 771.08 175.29 771.08 145.71 799.7C116.13 828.32 116.13 828.32 126.34 876.72" fill="#efefef" stroke="3f3f3f" stroke-width="1"/><path d="M1129.09 1020.09C1158.55 1046.34 1158.55 1046.34 1245.5 1013.35C1332.45 980.36 1332.45 980.36 1324.96 960.58C1317.46 940.8 1317.46 940.8 1255.72 839.53C1193.97 738.26 1193.97 738.26 1191.34 736.39C1188.71 734.51 1188.71 734.51 1157.64 779.04C1126.56 823.58 1126.56 823.58 1113.1 908.71C1099.64 993.85 1099.64 993.85 1129.09 1020.09" fill="#efefef" stroke="3f3f3f" stroke-width="1"/><path d="M816.87 939.09C832.45 1000.26 832.45 1000.26 863.14 1016.59C893.83 1032.92 893.83 1032.92 928.31 1012.81C962.78 992.71 962.78 992.71 941 920.21C919.21 847.72 919.21 847.72 875.95 810.94C832.69 774.16 832.69 774.16 816.99 826.04C801.28 877.92 801.28 877.92 816.87 939.09" fill="#efefef" stroke="3f3f3f" stroke-width="1"/><path d="M56.6 949.05C106.19 987.2 106.19 987.2 115.86 957.82C125.52 928.44 125.52 928.44 115.32 880.04C105.11 831.64 105.11 831.64 56.06 834.22C7.01 836.81 7.01 836.81 7.01 873.85C7.01 910.9 7.01 910.9 56.6 949.05" fill="#efefef" stroke="3f3f3f" stroke-width="1"/><path d="M359.29 941.76C361.57 985.39 361.57 985.39 420.51 999.79C479.44 1014.19 479.44 1014.19 525 981.25C570.56 948.31 570.56 948.31 550.67 866.8C530.77 785.3 530.77 785.3 503.89 773.69C477.01 762.08 477.01 762.08 417.01 830.1C357 898.12 357 898.12 359.29 941.76" fill="#efefef" stroke="3f3f3f" stroke-width="1"/><path d="M256.9 990.14C286.93 1039.58 286.93 1039.58 315.8 1015.09C344.67 990.6 344.67 990.6 342.38 946.97C340.1 903.34 340.1 903.34 304.92 892.13C269.75 880.93 269.75 880.93 248.31 910.81C226.87 940.7 226.87 940.7 256.9 990.14" fill="#efefef" stroke="3f3f3f" stroke-width="1"/><path d="M624.94 983.09C641.76 1002.63 641.76 1002.63 682.92 1012.57C724.07 1022.51 724.07 1022.51 770.34 1014.12C816.6 1005.72 816.6 1005.72 801.02 944.55C785.43 883.38 785.43 883.38 696.77 923.47C608.11 963.56 608.11 963.56 624.94 983.09" fill="#efefef" stroke="3f3f3f" stroke-width="1"/><path d="M53.39 1018.42C101.37 1019.89 101.37 1019.89 102.98 1008C104.6 996.11 104.6 996.11 55.01 957.97C5.42 919.82 5.42 919.82 5.42 968.38C5.42 1016.94 5.42 1016.94 53.39 1018.42" fill="#efefef" stroke="3f3f3f" stroke-width="1"/><path d="M159.21 1096.49C204.76 1169.78 204.76 1169.78 240.01 1108.19C275.26 1046.6 275.26 1046.6 245.23 997.16C215.2 947.72 215.2 947.72 175.7 944.19C136.2 940.67 136.2 940.67 126.54 970.04C116.87 999.42 116.87 999.42 115.26 1011.31C113.65 1023.2 113.65 1023.2 159.21 1096.49" fill="#efefef" stroke="3f3f3f" stroke-width="1"/><path d="M197.45 1186.42C197.51 1180.26 197.51 1180.26 151.95 1106.96C106.4 1033.67 106.4 1033.67 58.42 1032.19C10.44 1030.72 10.44 1030.72 10.44 1111.65C10.44 1192.59 10.44 1192.59 103.92 1192.59C197.39 1192.59 197.39 1192.59 197.45 1186.42" fill="#efefef" stroke="3f3f3f" stroke-width="1"/><path d="M1767.08 1072.97C1824.67 1180.12 1824.67 1180.12 1868.13 1180.12C1911.6 1180.12 1911.6 1180.12 1911.6 1000.38C1911.6 820.65 1911.6 820.65 1867.19 840.06C1822.79 859.47 1822.79 859.47 1766.14 912.64C1709.49 965.81 1709.49 965.81 1767.08 1072.97" fill="#efefef" stroke="3f3f3f" stroke-width="1"/><path d="M458.77 1113.11C466.46 1035.26 466.46 1035.26 407.53 1020.86C348.59 1006.46 348.59 1006.46 319.72 1030.95C290.85 1055.44 290.85 1055.44 255.6 1117.03C220.36 1178.62 220.36 1178.62 220.3 1184.79C220.24 1190.96 220.24 1190.96 335.66 1190.96C451.07 1190.96 451.07 1190.96 458.77 1113.11" fill="#efefef" stroke="3f3f3f" stroke-width="1"/><path d="M747.04 1112.12C760.01 1189.64 760.01 1189.64 813.6 1189.64C867.19 1189.64 867.19 1189.64 877.59 1120.06C887.98 1050.47 887.98 1050.47 857.29 1034.14C826.6 1017.81 826.6 1017.81 780.33 1026.2C734.07 1034.6 734.07 1034.6 747.04 1112.12" fill="#efefef" stroke="3f3f3f" stroke-width="1"/><path d="M624.07 1098.34C626.67 1010.88 626.67 1010.88 609.84 991.35C593.02 971.81 593.02 971.81 586.87 968.02C580.71 964.23 580.71 964.23 535.15 997.17C489.59 1030.11 489.59 1030.11 481.9 1107.96C474.21 1185.81 474.21 1185.81 547.84 1185.81C621.47 1185.81 621.47 1185.81 624.07 1098.34" fill="#efefef" stroke="3f3f3f" stroke-width="1"/><path d="M734.03 1113.31C721.06 1035.79 721.06 1035.79 679.91 1025.85C638.75 1015.9 638.75 1015.9 636.15 1103.37C633.55 1190.83 633.55 1190.83 690.28 1190.83C747 1190.83 747 1190.83 734.03 1113.31" fill="#efefef" stroke="3f3f3f" stroke-width="1"/><path d="M1136.91 1127.04C1140.46 1065.51 1140.46 1065.51 1111 1039.27C1081.55 1013.02 1081.55 1013.02 1029.56 1011.1C977.57 1009.18 977.57 1009.18 943.09 1029.29C908.62 1049.4 908.62 1049.4 898.22 1118.98C887.83 1188.57 887.83 1188.57 1010.59 1188.57C1133.35 1188.57 1133.35 1188.57 1136.91 1127.04" fill="#efefef" stroke="3f3f3f" stroke-width="1"/><path d="M1527.19 1125.17C1529.64 1190.42 1529.64 1190.42 1667.21 1190.42C1804.78 1190.42 1804.78 1190.42 1747.19 1083.26C1689.61 976.11 1689.61 976.11 1607.17 1018.02C1524.74 1059.92 1524.74 1059.92 1527.19 1125.17" fill="#efefef" stroke="3f3f3f" stroke-width="1"/><path d="M1499.5 1123.74C1497.05 1058.49 1497.05 1058.49 1484.98 1047.93C1472.9 1037.37 1472.9 1037.37 1410.56 1018.66C1348.23 999.96 1348.23 999.96 1261.28 1032.95C1174.33 1065.94 1174.33 1065.94 1170.78 1127.47C1167.22 1188.99 1167.22 1188.99 1334.58 1188.99C1501.95 1188.99 1501.95 1188.99 1499.5 1123.74" fill="#efefef" stroke="3f3f3f" stroke-width="1"/></svg>